<?xml version="1.0" standalone="no"?>
<svg viewBox="0 0 200 200" xmlns="http://www.w3.org/2000/svg">
  <path fill="#BAE6FF" d="M39.3,-62.2C52.1,-52.9,64.5,-44,72.1,-31.7C79.6,-19.3,82.3,-3.5,80.9,12.1C79.4,27.8,73.8,43.4,63,53C52.2,62.6,36.3,66.1,20.6,71.3C4.8,76.6,-10.9,83.5,-23.1,79.5C-35.3,75.5,-44,60.6,-55.4,47.8C-66.9,35,-81,24.4,-87,10C-93,-4.4,-90.8,-22.4,-81.2,-34.4C-71.6,-46.5,-54.6,-52.5,-39.8,-60.9C-25.1,-69.3,-12.5,-80,0.4,-80.6C13.2,-81.1,26.5,-71.4,39.3,-62.2Z" transform="translate(100 100)" />
</svg>
