<?xml version="1.0" standalone="no"?>
<svg viewBox="0 0 200 200" xmlns="http://www.w3.org/2000/svg">
  <path fill="#BAE6FF" d="M39.6,-65.8C46.1,-57.5,42.5,-37.6,50.5,-22.4C58.4,-7.2,77.9,3.4,81.2,14.8C84.4,26.2,71.4,38.4,57,42.2C42.6,46.1,26.7,41.6,14,43.5C1.2,45.3,-8.4,53.5,-21.6,57.2C-34.8,60.8,-51.4,59.9,-60.6,51.4C-69.8,42.9,-71.6,26.7,-68.2,13.2C-64.8,-0.2,-56.2,-11,-50.3,-22.5C-44.3,-34,-40.9,-46.2,-33,-53.9C-25,-61.5,-12.5,-64.6,2,-67.8C16.6,-71,33.2,-74.2,39.6,-65.8Z" transform="translate(100 100)" />
</svg>
