<?xml version="1.0" encoding="utf-8"?>
<!-- Generator: Adobe Illustrator 26.1.0, SVG Export Plug-In . SVG Version: 6.00 Build 0)  -->
<svg version="1.1" id="Layer_1" xmlns="http://www.w3.org/2000/svg" xmlns:xlink="http://www.w3.org/1999/xlink" x="0px" y="0px"
	 viewBox="0 0 1920 1080" style="enable-background:new 0 0 1920 1080;" xml:space="preserve">
<style type="text/css">
	.st0{fill:none;stroke:#15000B;stroke-miterlimit:10;}
	.st1{fill:#F488B8;}
	.st2{fill:#0093D8;}
	.st3{fill:none;stroke:#2A0015;stroke-miterlimit:10;}
	.st4{fill:none;stroke:#0093D8;stroke-width:2;stroke-miterlimit:10;}
</style>
<g>
	<g>
		<line class="st0" x1="1110.7" y1="576.7" x2="1110.7" y2="576.7"/>
		<g>
			<path class="st1" d="M802.9,603.8c-7.2,2.6-14.1,4.5-20.8,5.8c-6.7,1.3-14.2,1.9-22.6,1.9c-7.6,0-14.3-0.7-20.1-2.1
				c-5.8-1.4-10.2-3.3-13.3-5.6c-3.1-2.4-4.7-4.9-4.7-7.7c0-3.7,2.6-6.9,7.7-9.6c5.1-2.6,12.2-4.4,21.2-5.3c1.9-0.2,6.6-0.7,14-1.4
				c7.5-0.7,13.9-1.3,19.2-1.9c5.3-0.6,11.1-1.3,17.3-2.1c-0.4-3.6-1.9-6.3-4.7-7.9c-2.8-1.7-8.6-2.5-17.3-2.5
				c-7.5,0-13.2,0.5-17,1.5c-3.8,1-7.1,2.4-9.8,4.4c-2.7,1.9-4.6,3.2-5.8,3.8c-1.1,0.6-3.5,0.9-7.2,0.9c-3.3,0-6.2-0.5-8.6-1.5
				c-2.4-1-3.6-2.2-3.6-3.8c0-2.4,1.8-4.7,5.5-7c3.7-2.3,9.5-4.1,17.3-5.6s17.6-2.2,29.2-2.2c13,0,23.3,0.7,30.8,2.1
				c7.5,1.4,12.7,3.7,15.8,6.7c3.1,3.1,4.6,7.2,4.6,12.2c0,3.2,0,5.9-0.1,8.2c0,2.2-0.1,4.7-0.2,7.5c0,2.6,0.9,5.3,2.8,8
				c1.8,2.8,2.8,4.6,2.8,5.4c0,1.4-1.4,2.7-4.3,3.8c-2.9,1.2-6.1,1.7-9.7,1.7c-3,0-6.1-0.7-9-2C809.4,608.2,806.3,606.3,802.9,603.8
				z M801,584c-4.3,0.7-10.7,1.5-19,2.3c-8.3,0.8-14,1.4-17.2,1.8c-3.2,0.4-6.2,1.1-9.1,2.3c-2.9,1.1-4.3,2.7-4.3,4.7
				c0,2.1,1.7,3.8,5.1,5.3c3.4,1.5,7.9,2.2,13.4,2.2c5.9,0,11.3-0.6,16.3-1.8c5-1.2,8.6-2.7,10.9-4.6c2.7-2.1,4-5.5,4-10.2V584z"/>
			<path class="st1" d="M889.7,591.7v11.4c0,2.8-1.4,4.9-4.2,6.2c-2.8,1.4-6.4,2.1-10.8,2.1c-4.3,0-7.8-0.7-10.5-2.1
				c-2.8-1.4-4.1-3.5-4.1-6.2v-38.1c0-6.1,4.8-9.2,14.5-9.2c4.9,0,8.5,0.7,10.7,2.2c2.2,1.4,3.4,3.6,3.6,6.4
				c3.6-2.8,7.2-4.9,10.9-6.4c3.7-1.4,8.7-2.2,14.9-2.2c6.2,0,12.3,0.7,18.2,2.2c5.9,1.4,8.8,3.3,8.8,5.7c0,1.7-1.2,3.1-3.8,4.1
				c-2.5,1.1-5.2,1.6-8.1,1.6c-1.1,0-3.7-0.3-7.9-0.9c-4.2-0.6-7.8-0.9-11-0.9c-4.3,0-7.9,0.5-10.7,1.6c-2.8,1.1-4.9,2.6-6.4,4.7
				c-1.5,2.1-2.6,4.5-3.2,7.4C890,584.2,889.7,587.6,889.7,591.7z"/>
			<path class="st1" d="M1040.6,587h-58.1c0.1,3.1,1.4,5.9,4.1,8.2c2.6,2.4,6.2,4.2,10.5,5.4s9.2,1.8,14.5,1.8
				c3.5,0,6.8-0.2,9.7-0.6c2.9-0.4,5.8-1,8.5-1.8s5.3-1.7,7.6-2.6c2.3-0.9,5.3-2.2,9-3.8c1.5-0.6,3.7-0.9,6.5-0.9
				c3,0,5.5,0.4,7.4,1.2c1.9,0.8,2.8,1.9,2.8,3.3c0,1.2-1.1,2.7-3.2,4.3c-2.1,1.7-5.3,3.2-9.5,4.8c-4.2,1.5-9.6,2.8-16,3.8
				c-6.4,1-13.8,1.5-22.1,1.5c-19.1,0-33.9-2.5-44.5-7.5c-10.6-5-15.9-11.8-15.9-20.4c0-4,1.3-7.8,3.9-11.3
				c2.6-3.5,6.4-6.4,11.4-8.9c5-2.5,11.2-4.4,18.5-5.7c7.3-1.3,15.4-2,24.4-2c11.6,0,21.5,1.1,29.8,3.4c8.3,2.3,14.5,5.2,18.6,8.7
				c4.1,3.6,6.2,7.2,6.2,10.9c0,3.4-2.1,5.7-6.4,6.7C1054.3,586.5,1048.3,587,1040.6,587z M982.5,579.3h53.8
				c-0.7-4.7-3.5-8.2-8.2-10.5c-4.7-2.3-11-3.5-18.8-3.5c-7.4,0-13.5,1.2-18.2,3.5C986.4,571.2,983.5,574.6,982.5,579.3z"/>
		</g>
		<g>
			<path class="st2" d="M1132.9,544.1l54.9,43.8v-44.2c0-2.9,1.2-5,3.5-6.5c2.3-1.4,5.5-2.2,9.5-2.2c4.1,0,7.3,0.7,9.7,2.2
				c2.4,1.4,3.6,3.6,3.6,6.5v58.5c0,6.5-5.1,9.8-15.4,9.8c-2.6,0-4.9-0.2-6.9-0.6c-2.1-0.4-4-1-5.8-1.9c-1.8-0.8-3.5-1.8-5-3
				c-1.5-1.1-3.1-2.3-4.6-3.5l-53.6-43.3v43.5c0,2.8-1.3,5-3.8,6.4c-2.5,1.5-5.7,2.2-9.6,2.2c-4,0-7.3-0.7-9.7-2.2
				c-2.4-1.5-3.7-3.6-3.7-6.4v-57.3c0-2.4,0.5-4.3,1.5-5.7c1.2-1.5,3.2-2.8,6.1-3.7c2.8-1,5.9-1.4,9.1-1.4c2.6,0,4.8,0.2,6.6,0.7
				c1.8,0.4,3.4,1,4.8,1.8c1.4,0.7,2.8,1.7,4.2,2.9C1129.9,541.5,1131.4,542.8,1132.9,544.1z"/>
			<path class="st2" d="M1316.9,587.1h-51.4c0.1,3.1,1.3,5.9,3.6,8.3c2.3,2.4,5.5,4.2,9.3,5.4c3.9,1.2,8.2,1.8,12.8,1.8
				c3.1,0,6-0.2,8.6-0.6c2.6-0.4,5.1-1,7.6-1.8c2.4-0.8,4.7-1.7,6.7-2.7c2.1-0.9,4.7-2.2,8-3.9c1.3-0.6,3.3-0.9,5.8-0.9
				c2.7,0,4.9,0.4,6.5,1.2c1.7,0.8,2.5,1.9,2.5,3.3c0,1.3-0.9,2.7-2.8,4.4c-1.9,1.7-4.7,3.3-8.4,4.8c-3.8,1.5-8.5,2.8-14.1,3.8
				c-5.7,1-12.2,1.5-19.6,1.5c-16.9,0-30-2.5-39.4-7.6c-9.4-5.1-14-11.9-14-20.6c0-4.1,1.2-7.9,3.5-11.4s5.7-6.5,10.1-9
				c4.4-2.5,9.9-4.4,16.4-5.8c6.5-1.3,13.7-2,21.6-2c10.3,0,19.1,1.1,26.4,3.4c7.3,2.3,12.8,5.2,16.5,8.8c3.7,3.6,5.5,7.3,5.5,11.1
				c0,3.5-1.9,5.7-5.7,6.8C1329.1,586.6,1323.8,587.1,1316.9,587.1z M1265.5,579.3h47.6c-0.6-4.7-3.1-8.3-7.3-10.6
				c-4.2-2.3-9.7-3.5-16.6-3.5c-6.5,0-11.9,1.2-16.1,3.6C1269,571.1,1266.4,574.6,1265.5,579.3z"/>
			<path class="st2" d="M1445.3,593.8c0,3.8-1.8,7.1-5.3,9.8c-3.5,2.7-8.7,4.8-15.6,6.2c-6.9,1.4-15.3,2.1-25.2,2.1
				c-9.4,0-17.5-0.8-24.3-2.3c-6.7-1.5-11.7-3.4-14.9-5.7c-3.2-2.3-4.8-4.6-4.8-6.9c0-1.5,1-2.8,3.1-3.9c2.1-1.1,4.7-1.6,7.8-1.6
				c2.8,0,4.9,0.4,6.4,1.1c1.5,0.7,2.9,1.7,4.2,3c2.7,2.5,5.9,4.3,9.7,5.5c3.8,1.2,8.9,1.8,15.3,1.8c5.3,0,9.6-0.6,12.9-1.9
				s5.1-2.6,5.1-4.2c0-2.4-1.7-4.2-5.2-5.3c-3.5-1.1-9.3-2.2-17.3-3.2c-9-1.2-16.4-2.4-22.1-3.7s-10.2-3-13.6-5.1
				c-3.4-2.1-5.1-4.7-5.1-7.9c0-2.8,1.6-5.4,4.7-7.9c3.1-2.5,7.8-4.4,13.9-5.9c6.1-1.5,13.5-2.2,22.2-2.2c6.8,0,12.9,0.4,18.3,1.1
				c5.4,0.7,9.9,1.7,13.6,3c3.6,1.2,6.4,2.6,8.3,4.2c1.9,1.5,2.8,3,2.8,4.5c0,1.6-1,2.9-3,3.9c-2,1-4.9,1.5-8.6,1.5
				c-2.7,0-5-0.4-6.9-1.2c-1.9-0.8-4.1-2-6.5-3.7c-2-1.4-4.3-2.4-7-3.2c-2.7-0.8-6.4-1.2-11-1.2c-4.7,0-8.7,0.5-11.8,1.6
				c-3.1,1.1-4.7,2.4-4.7,4c0,1.5,1.2,2.6,3.5,3.6c2.3,0.9,5.4,1.7,9.3,2.3c3.9,0.6,9.3,1.4,16.2,2.2c8.1,1,14.8,2.3,20,3.8
				c5.2,1.5,9.1,3.2,11.7,5.1C1444,589,1445.3,591.3,1445.3,593.8z"/>
			<path class="st2" d="M1469,556.8h2.9v-8.3c0-2.2,0.1-4,0.3-5.2c0.2-1.3,0.8-2.4,1.9-3.3c1-0.9,2.5-1.7,4.4-2.3
				c1.9-0.6,4.1-0.9,6.4-0.9c3.3,0,6.4,0.7,9,2c1.8,0.9,2.9,2,3.4,3.2c0.5,1.3,0.7,3.1,0.7,5.4v9.4h9.6c3.7,0,6.6,0.5,8.5,1.4
				c2,0.9,2.9,2.1,2.9,3.6c0,1.9-1.4,3.2-4.2,3.9c-2.8,0.7-6.8,1.1-12,1.1h-4.9v25.4c0,2.2,0.1,3.8,0.4,5c0.3,1.2,1.1,2.1,2.3,2.8
				c1.3,0.7,3.3,1.1,6.1,1.1c1.5,0,3.6-0.1,6.3-0.4c2.6-0.3,4.7-0.4,6.2-0.4c2.1,0,4,0.4,5.7,1.3c1.7,0.9,2.5,2,2.5,3.3
				c0,2.2-2.3,3.9-6.9,5.1s-11.3,1.8-19.9,1.8c-8.2,0-14.4-0.7-18.7-2.2c-4.2-1.5-7-3.5-8.3-6c-1.3-2.6-2-6-2-10.3v-26.6h-3.5
				c-3.8,0-6.7-0.5-8.7-1.4c-2-0.9-3-2.1-3-3.6s1-2.6,3.1-3.6C1462,557.3,1465,556.8,1469,556.8z"/>
		</g>
	</g>
	<g>
		<line class="st3" x1="640.8" y1="565.7" x2="640.8" y2="565.7"/>
		<g>
			<path class="st4" d="M451.5,613.8c-5.6-4.7-15-13.9-17.9-26.5c-1-4.3-2-12.6,2.5-22.5c6.3-13.4,19.6-22,24.5-25.1
				c11.3-7.1,14.7-6,22.5-12.1c11-8.7,8.1-14,14.7-21.9c10-12.1,33.2-19.8,53.1-22.2c40.3-4.9,75.3,10.9,74.8,11.6
				c-0.4,0.6-22.3-6.8-50.5-4.6c-15.8,1.2-28.2,5-37.1,8.6"/>
			<path class="st4" d="M506.9,526.4c-4.3,2-11.1,5.7-15.9,11.4c-3.4,4.1-1.5,6.4-5.3,9.9c-3.6,3.4-8.4,5-17.5,7.7
				c-11.3,3.5-22,6.6-32.1,9.4"/>
			<path class="st4" d="M482.8,560.4c-6.5,2.4-18.5,7.6-25.1,16.6c0,0-4.5,6.2-4.6,13.6c-0.2,20.8,55.2,72.7,134,73.5
				c8.2,0.1,38.1,0.4,60.1-11.1c28.8-15,34.3-45,13.3-56.5c-1.7-0.9-3.4-1.6-4.7-2.1"/>
			<path class="st4" d="M661.9,584.1c3.9-1.4,8.8-3.8,10.9-7.5c4-7-5.3-13.5-10.7-20.8c-9.8-13.1,1.5-18.1-3-31.1
				c-2.6-7.4-10.1-17.9-33.3-29.7"/>
			<path class="st4" d="M553.8,566"/>
			<path class="st4" d="M582.8,508c-7.7,1.4-18.5,3.6-30.5,7.4c-12.8,4-23.4,7.3-32.4,13.7c-11.4,8.1-22.3,22.7-12.5,30.2
				c4.9,3.8,11.7,3.3,18.5,9.2c4.8,4.2,5.9,8.3,6.2,9.7c1.3,5.3-1.6,6.9-2.1,14.1c-0.2,2.7,0.1,6.4,2.1,11"/>
			<path class="st4" d="M631.6,515.7c-3.3,2.9-9.6,7.4-20,10.4c-11.1,3.2-21.6,3.3-29.6,3.3c-16.2,0-20.5-2.5-35.9-2.6
				c-11.2-0.1-20.3,1.2-26.3,2.2"/>
			<path class="st4" d="M656.6,519.4c-1.2,2.1-6.4,10.4-21.5,14.7c-16.1,4.6-37.1,2.7-53-4.7"/>
			<path class="st4" d="M633.1,543.1c-0.1,1.6-0.7,6.6-7.7,10.7c-1.4,0.8-6.9,4.1-15.3,4.6c-6.7,0.4-10.6-1.2-13.5,0.3
				c-3.1,1.6-1,4.5-3.9,5.4c-2,0.6-4.9-0.2-7.3-1.1"/>
			<path class="st4" d="M587.9,538.5c2.3,1.1,5.3,2.8,8,5.2c2.5,2.2,3.9,4.3,4.7,5.8"/>
			<path class="st4" d="M574.6,543.6c-0.6,3.2,1.8,6.3,6.3,7.9c3.5,1.3,7.1,1.2,8.5,1.1"/>
			<path class="st4" d="M571.4,564.5c0.7,1.6,2.3,3.9,6,5c6.8,2,15.9-1.7,20.6-3.5c3.4-1.4,8.1-3.7,12.1-7.4"/>
			<path class="st4" d="M529.5,537.1c-1.3,5.3-1.7,9.7-1.7,13c0,5.1,0,7.7,2.1,10.8c3,4.5,8.2,7.4,10.5,8.7c3.4,1.8,7,3.8,12.3,4.7
				c11.9,2,23-2.9,24.7-3.7"/>
			<path class="st4" d="M494.8,569c-0.2,1.1-0.1,2.5,1.5,3.7c2.6,1.9,6.7,1.3,9.3,2.3c6.4,2.4,0.7,12.5-1.1,18.4
				c-1.9,6.5-1.6,15.6,8,27.8"/>
			<path class="st4" d="M599,571.8c18.4,0.7,34.8,6.8,42,15.8c8.2,10.2,0.9,19.7-0.3,21.2"/>
			<path class="st4" d="M625,599.7c0.3-1.9-1.2-3.8-3.9-4.7c-3.6-1.2-8.9-0.5-11.5,2"/>
			<path class="st4" d="M641.9,619.3c-1.8,2.4-9.7,12.3-29.6,16.8c-19.6,4.4-43.2,1.6-60.7-7"/>
			<path class="st4" d="M544.1,573.7c-1.3,0.8-2.9,1.9-4.2,3.5c-2.3,2.8-2.1,5.4-1.9,6.8"/>
			<path class="st4" d="M548.2,584.3c-4.7,6.4-3.5,10.3-1.3,12.7c4.1,4.4,11.6,4.1,14.8,8.6c3.7,5.2-3.5,9.3,1.2,12.1
				c3.1,1.8,7.1,0.5,11.8,2.8c3.9,2,2.5,3.6,5.5,5.9c5.2,3.8,17.6,5.1,26.9,3c6.3-1.4,10-3.9,11.6-5.4"/>
			<path class="st4" d="M556.8,584.4c-1.4,1.4-3.7,4.2-4,7.9c-0.3,5.4,4,9.4,5.7,10.8"/>
			<path class="st4" d="M643.7,545.7c-2.6,8.7,0.7,13.8,4.3,16.8c3.4,2.8,7.8,4.6,9.5,8.5c1.5,3.5-0.1,6.6-1.5,8.6"/>
			<path class="st4" d="M635,570.8c2.2-0.7,5.7-1.9,8.7-4.1c2.2-1.6,3.5-3.1,4.2-4.2"/>
		</g>
		<path class="st1" d="M747.9,463.5c-1.1,1-15.9-8-26.2-13.4c0,0-36.4-19-86.8-24.2c-56.2-5.8-139.2,13.4-175.6,66.4
			c-5.1,7.4-30.5,46-11.4,89.8c14.6,33.5,54.9,69.3,88.5,66.9c9.6-0.7,16.1-4.4,33.2-3.9c7.5,0.2,24.6,0.6,41.3,7.9
			c6,2.6,12.2,6.2,24.6,10.6c5.5,1.9,10.3,3.5,10.3,3.5c15.4,4.8,21.7,5.4,21.7,7c0,1.9-9,4.2-18.3,4.6c-23.8,1-42.3-10.9-42.6-10.5
			c-0.3,0.4,18,16.8,45.9,19.1c37.9,3.1,72.8-21.4,75.8-17.9c0.6,0.7-0.5,2.1-1,2.6c-5.9,6.7-30.7,22.3-67.9,26.9
			c-141.6,17.3-212.8-57.5-212.8-57.5c-5.8-6.1-53.8-58.2-32.4-124c18.3-56.3,80.3-100.6,155.3-109c80.3-9,143.3,26.6,162,40.7
			C732.8,450,749.2,462.4,747.9,463.5z"/>
	</g>
</g>
</svg>
