<?xml version="1.0" encoding="utf-8"?>
<svg id="Layer_1" data-name="Layer 1" xmlns="http://www.w3.org/2000/svg" viewBox="0 0 500 74.16">
  <defs>
    <style>.cls-1{fill:#fff;}</style>
  </defs>
  <title>wavy-dashed-top</title>
  <path class="cls-1" d="M -0.759 9.872 L 499.241 9.872 L 499.241 28.241 C 470.52 34.651 440.467 37.867 410.241 37.765 C 375.941 37.582 357.321 33.003 335.241 30.282 C 249.551 19.621 216.691 49.276 130.241 48.651 C 100.041 48.433 54.811 44.453 -0.759 24.839" style="fill: rgb(215, 239, 249);"/>
  <path class="cls-1" d="M472.73,39.52a189,189,0,0,1-107.24,2c-1.76-.49.6,1.41.88,1.63a16.3,16.3,0,0,0,5.35,3.06,190.87,190.87,0,0,0,108.64-1.88c.26-.08-3.16-2.77-3.46-3-.95-.59-3-2.19-4.17-1.81Z" style="fill: rgb(215, 239, 249);"/>
  <path class="cls-1" d="M318.81,31.77a132.8,132.8,0,0,0-42.57,1.13c-13.2,2.56-25.93,7-38.6,11.42-.29.1,3.17,2.77,3.46,3,.92.58,3,2.23,4.17,1.82,13.1-4.57,26.28-9.17,40-11.62a132.22,132.22,0,0,1,40.74-.8c.82.11-2.08-2.27-2.23-2.37-1.38-1-3.21-2.31-4.94-2.53Z" style="fill: rgb(215, 239, 249);"/>
  <path class="cls-1" d="M 128.449 56.693 C 96.449 57.983 65.599 49.003 35.659 38.693 C 33.909 38.093 36.319 40.163 36.539 40.333 C 38.135 41.663 39.944 42.715 41.889 43.443 C 72.109 53.813 103.349 62.923 135.619 61.623 C 136.519 61.623 133.559 59.363 133.399 59.253 C 132.219 58.423 130.009 56.653 128.449 56.713 L 128.449 56.693 Z" style="fill: rgb(215, 239, 249);"/>
  <path class="cls-1" d="M 53.319 54.783 C 73.417 62.979 94.674 67.977 116.319 69.593 C 117.179 69.663 114.239 67.333 114.089 67.223 C 112.779 66.303 110.829 64.823 109.149 64.693 C 88.311 63.183 67.837 58.426 48.469 50.593 C 46.749 49.903 47.269 50.403 47.959 51.403 C 48.959 52.803 51.809 54.143 53.359 54.783 L 53.319 54.783 Z" style="fill: rgb(215, 239, 249);"/>
  <path class="cls-1" d="M261.34,57.46a102.31,102.31,0,0,1,54.89-8.32c.83.1-2.07-2.27-2.22-2.37-1.37-1-3.22-2.32-4.95-2.53a103.21,103.21,0,0,0-55.35,8.45c.61-.28,5.49,5.73,7.63,4.77Z" style="fill: rgb(215, 239, 249);"/>
  <path class="cls-1" d="M375.33,58a143.56,143.56,0,0,0,83.31,2.9c.89-.24-2-2.2-2.23-2.37-.9-.63-3.68-2.87-4.94-2.54a141.93,141.93,0,0,1-82.36-2.68c-1.76-.6.65,1.46.88,1.64A18.41,18.41,0,0,0,375.33,58Z" style="fill: rgb(215, 239, 249);"/>
</svg>